HIERARCHY
ROOT hip
{
  OFFSET 0 0 0
  CHANNELS 6 Xposition Yposition Zposition Zrotation Yrotation Xrotation
  JOINT abdomen
  {
    OFFSET 0 20.6881 -0.73152
    CHANNELS 3 Zrotation Xrotation Yrotation
    JOINT chest
    {
      OFFSET 0 11.7043 -0.48768
      CHANNELS 3 Zrotation Xrotation Yrotation
      JOINT neck
      {
        OFFSET 0 22.1894 -2.19456
        CHANNELS 3 Zrotation Xrotation Yrotation
        JOINT head
        {
          OFFSET -0.24384 7.07133 1.2192
          CHANNELS 3 Zrotation Xrotation Yrotation
          JOINT leftEye
          {
            OFFSET 4.14528 8.04674 8.04672
            CHANNELS 3 Zrotation Xrotation Yrotation
            End Site
            {
              OFFSET 1 0 0
            }
          }
          JOINT rightEye
          {
            OFFSET -3.6576 8.04674 8.04672
            CHANNELS 3 Zrotation Xrotation Yrotation
            End Site
            {
              OFFSET 1 0 0
            }
          }
        }
      }
      JOINT rCollar
      {
        OFFSET -2.68224 19.2634 -4.8768
        CHANNELS 3 Zrotation Xrotation Yrotation
        JOINT rShldr
        {
          OFFSET -8.77824 -1.95073 1.46304
          CHANNELS 3 Zrotation Xrotation Yrotation
          JOINT rForeArm
          {
            OFFSET -28.1742 -1.7115 0.48768
            CHANNELS 3 Zrotation Xrotation Yrotation
            JOINT rHand
            {
              OFFSET -22.5879 0.773209 7.07136
              CHANNELS 3 Zrotation Xrotation Yrotation
              JOINT rThumb1
              {
                OFFSET -1.2192 -0.487915 3.41376
                CHANNELS 3 Zrotation Xrotation Yrotation
                JOINT rThumb2
                {
                  OFFSET -3.37035 -0.52449 3.41376
                  CHANNELS 3 Zrotation Xrotation Yrotation
                  End Site
                  {
                    OFFSET -1.78271 -1.18214 1.43049
                  }
                }
              }
              JOINT rIndex1
              {
                OFFSET -7.75947 0.938293 5.60832
                CHANNELS 3 Zrotation Xrotation Yrotation
                JOINT rIndex2
                {
                  OFFSET -2.54057 -0.884171 1.56538
                  CHANNELS 3 Zrotation Xrotation Yrotation
                  End Site
                  {
                    OFFSET -1.62519 -0.234802 1.16502
                  }
                }
              }
              JOINT rMid1
              {
                OFFSET -8.24714 1.18213 3.41376
                CHANNELS 3 Zrotation Xrotation Yrotation
                JOINT rMid2
                {
                  OFFSET -3.10165 -0.590103 1.0647
                  CHANNELS 3 Zrotation Xrotation Yrotation
                  End Site
                  {
                    OFFSET -2.48547 -0.328903 0.83742
                  }
                }
              }
              JOINT rRing1
              {
                OFFSET -8.82822 0.546677 1.51678
                CHANNELS 3 Zrotation Xrotation Yrotation
                JOINT rRing2
                {
                  OFFSET -2.60934 -0.819778 -0.0198488
                  CHANNELS 3 Zrotation Xrotation Yrotation
                  End Site
                  {
                    OFFSET -2.33842 -0.294052 0.168128
                  }
                }
              }
              JOINT rPinky1
              {
                OFFSET -8.27202 -0.0477905 -0.4584
                CHANNELS 3 Zrotation Xrotation Yrotation
                JOINT rPinky2
                {
                  OFFSET -1.82734 -0.647385 -0.700984
                  CHANNELS 3 Zrotation Xrotation Yrotation
                  End Site
                  {
                    OFFSET -1.69225 -0.51767 -0.607171
                  }
                }
              }
            }
          }
        }
      }
      JOINT lCollar
      {
        OFFSET 2.68224 19.2634 -4.8768
        CHANNELS 3 Zrotation Xrotation Yrotation
        JOINT lShldr
        {
          OFFSET 8.77824 -1.95073 1.46304
          CHANNELS 3 Zrotation Xrotation Yrotation
          JOINT lForeArm
          {
            OFFSET 28.1742 -1.7115 0.48768
            CHANNELS 3 Zrotation Xrotation Yrotation
            JOINT lHand
            {
              OFFSET 22.5879 0.773209 7.07136
              CHANNELS 3 Zrotation Xrotation Yrotation
              JOINT lThumb1
              {
                OFFSET 1.2192 -0.487915 3.41376
                CHANNELS 3 Zrotation Xrotation Yrotation
                JOINT lThumb2
                {
                  OFFSET 3.37035 -0.52449 3.41376
                  CHANNELS 3 Zrotation Xrotation Yrotation
                  End Site
                  {
                    OFFSET 1.78271 -1.18214 1.43049
                  }
                }
              }
              JOINT lIndex1
              {
                OFFSET 7.75947 0.938293 5.60832
                CHANNELS 3 Zrotation Xrotation Yrotation
                JOINT lIndex2
                {
                  OFFSET 2.54057 -0.884171 1.56538
                  CHANNELS 3 Zrotation Xrotation Yrotation
                  End Site
                  {
                    OFFSET 1.62519 -0.234802 1.16502
                  }
                }
              }
              JOINT lMid1
              {
                OFFSET 8.24714 1.18213 3.41376
                CHANNELS 3 Zrotation Xrotation Yrotation
                JOINT lMid2
                {
                  OFFSET 3.10165 -0.590103 1.0647
                  CHANNELS 3 Zrotation Xrotation Yrotation
                  End Site
                  {
                    OFFSET 2.48547 -0.328903 0.83742
                  }
                }
              }
              JOINT lRing1
              {
                OFFSET 8.82822 0.546677 1.51678
                CHANNELS 3 Zrotation Xrotation Yrotation
                JOINT lRing2
                {
                  OFFSET 2.60934 -0.819778 -0.0198488
                  CHANNELS 3 Zrotation Xrotation Yrotation
                  End Site
                  {
                    OFFSET 2.33842 -0.294052 0.168128
                  }
                }
              }
              JOINT lPinky1
              {
                OFFSET 8.27202 -0.0477905 -0.4584
                CHANNELS 3 Zrotation Xrotation Yrotation
                JOINT lPinky2
                {
                  OFFSET 1.82734 -0.647385 -0.700984
                  CHANNELS 3 Zrotation Xrotation Yrotation
                  End Site
                  {
                    OFFSET 1.69225 -0.51767 -0.607171
                  }
                }
              }
            }
          }
        }
      }
    }
  }
  JOINT rButtock
  {
    OFFSET -8.77824 4.35084 1.2192
    CHANNELS 3 Zrotation Xrotation Yrotation
    JOINT rThigh
    {
      OFFSET 0 -1.70687 -2.19456
      CHANNELS 3 Zrotation Xrotation Yrotation
      JOINT rShin
      {
        OFFSET 0 -36.8199 0.73152
        CHANNELS 3 Zrotation Xrotation Yrotation
        JOINT rFoot
        {
          OFFSET 0.73152 -45.1104 -5.12064
          CHANNELS 3 Zrotation Xrotation Yrotation
          End Site
          {
            OFFSET -1.1221 -3.69964 12.103
          }
        }
      }
    }
  }
  JOINT lButtock
  {
    OFFSET 8.77824 4.35084 1.2192
    CHANNELS 3 Zrotation Xrotation Yrotation
    JOINT lThigh
    {
      OFFSET 0 -1.70687 -2.19456
      CHANNELS 3 Zrotation Xrotation Yrotation
      JOINT lShin
      {
        OFFSET 0 -36.8199 0.73152
        CHANNELS 3 Zrotation Xrotation Yrotation
        JOINT lFoot
        {
          OFFSET -0.73152 -45.1104 -5.12064
          CHANNELS 3 Zrotation Xrotation Yrotation
          End Site
          {
            OFFSET 1.1221 -3.69964 12.103
          }
        }
      }
    }
  }
}
MOTION
Frames:	5
Frame Time:	0.00833333
-54.4006 85.0966 15.2678 0.0 0.0 0.0 0.283894 -0.00291393 0.00816075 0.0784593 -0.00473302 0.0135945 4.1976e-15 0.0 1.24241e-17 1.26725e-14 3.18055e-15 4.96962e-17 -0.0 0.0 0.0 -0.0 0.0 0.0 2.08599e-15 1.94126e-18 9.93923e-17 4.64935e-14 4.22417e-16 1.39149e-15 7.59556e-13 -2.24825e-13 3.18055e-15 8.69022e-12 2.36703e-13 2.8625e-14 2.04958e-11 2.17247e-14 8.90555e-14 3.53952e-11 3.81667e-14 1.56642e-13 2.05015e-11 2.46493e-14 8.5875e-14 7.73091 5.47488 0.417314 2.04961e-11 2.21645e-14 9.22361e-14 2.90554 0.965183 0.102902 2.05087e-11 2.21645e-14 8.98507e-14 10.2786 0.731801 0.0259123 2.04953e-11 2.14687e-14 9.85972e-14 2.22167 -0.733487 -0.20892 2.08862e-15 1.74713e-18 -9.93923e-17 4.1389e-14 3.72721e-17 -5.96354e-16 7.58065e-13 2.29e-13 -1.27222e-14 8.6859e-12 -2.19483e-13 5.725e-14 2.04883e-11 2.05622e-14 8.26944e-14 3.53865e-11 3.18055e-14 1.58233e-13 2.04828e-11 2.3059e-14 9.54166e-14 -7.73091 5.47488 -0.417314 2.0488e-11 2.03754e-14 7.95139e-14 -2.90554 0.965183 -0.102902 2.04809e-11 2.08724e-14 8.90555e-14 -10.2786 0.731801 -0.0259123 2.04919e-11 2.34566e-14 8.90555e-14 -2.22167 -0.733487 0.20892 -2.03217e-16 0.0 -3.88251e-19 0.668897 -3.85853 -0.0572475 -0.00341773 1.43794 -0.027439 -0.455239 2.42105 0.100328 2.03217e-16 0.0 3.88251e-19 -0.23484 -2.72419 0.0299391 0.00662658 -0.616663 0.0579738 0.449455 3.34127 -0.117944
-49.3521 83.8853 13.25 -6.9494 56.6723 -4.4052 0.842504 0.242312 0.754392 0.360125 -1.20778 0.259504 0.0421295 -2.57352 0.34507 0.352204 1.01876 0.680339 -0.0 0.0 0.0 -0.0 0.0 0.0 -3.02395e-15 -4.82671e-14 -3.78907e-13 19.0991 -0.963064 -1.33 -0.974488 -0.281413 1.65405 0.147591 8.62047 1.16401 1.66701e-09 1.30416e-09 -6.00807e-10 2.85161e-09 2.27234e-09 -1.07463e-09 1.66701e-09 1.30417e-09 -6.00815e-10 7.73091 5.47488 0.417314 1.66701e-09 1.30416e-09 -6.00805e-10 2.90554 0.965183 0.102902 1.66702e-09 1.30416e-09 -6.00807e-10 10.2786 0.731801 0.0259123 1.66701e-09 1.30416e-09 -6.008e-10 2.22167 -0.733487 -0.20892 -3.03181e-15 -4.82666e-14 -3.79121e-13 -21.6361 11.2304 -0.751134 5.53518 -2.84552 -8.2601 -0.283509 -11.908 1.54773 3.0114e-10 3.90882e-10 -7.90503e-10 5.45765e-10 6.74195e-10 -1.35424e-09 3.01133e-10 3.90884e-10 -7.90488e-10 -7.73091 5.47488 -0.417314 3.01139e-10 3.90882e-10 -7.90506e-10 -2.90554 0.965183 -0.102902 3.01133e-10 3.90882e-10 -7.90499e-10 -10.2786 0.731801 -0.0259123 3.01145e-10 3.90884e-10 -7.90502e-10 -2.22167 -0.733487 0.20892 -2.03217e-16 0.0 -3.88251e-19 2.02951 -4.13139 9.0936 0.0387808 4.53666 0.169927 -3.02382 -6.82792 -13.8438 2.03217e-16 0.0 3.88251e-19 1.99461 -5.95826 -3.4039 -0.011659 6.46113 -0.0919377 1.15083 -0.652575 5.49095
-49.3255 84.8492 13.2004 -6.5676 56.7436 -4.0301 1.42514 0.499811 1.54106 0.670194 -2.47977 0.519231 0.119778 -5.2945 0.716131 0.696996 2.09281 1.40842 -0.0 0.0 0.0 -0.0 0.0 0.0 -8.33858e-15 -1.01896e-13 -7.90067e-13 39.2106 -2.20291 -2.75466 -1.9403 -0.559446 3.32608 -0.0978834 17.8598 2.50575 3.42959e-09 2.66827e-09 -1.23099e-09 5.86608e-09 4.64914e-09 -2.20289e-09 3.42959e-09 2.66827e-09 -1.231e-09 7.73091 5.47488 0.417314 3.42959e-09 2.66827e-09 -1.23099e-09 2.90554 0.965183 0.102902 3.4296e-09 2.66827e-09 -1.23099e-09 10.2786 0.731801 0.0259123 3.42959e-09 2.66827e-09 -1.23098e-09 2.22167 -0.733487 -0.20892 -8.35679e-15 -1.01894e-13 -7.90296e-13 -44.1651 22.9976 -1.62411 10.4644 -5.62123 -17.0034 0.182568 -24.5962 3.44228 6.00693e-10 8.22222e-10 -1.6714e-09 1.09169e-09 1.41848e-09 -2.86381e-09 6.00684e-10 8.22224e-10 -1.67139e-09 -7.73091 5.47488 -0.417314 6.00691e-10 8.22223e-10 -1.67141e-09 -2.90554 0.965183 -0.102902 6.00687e-10 8.22223e-10 -1.6714e-09 -10.2786 0.731801 -0.0259123 6.007e-10 8.22223e-10 -1.67141e-09 -2.22167 -0.733487 0.20892 -2.03217e-16 0.0 -3.88251e-19 3.56082 -4.28121 18.7711 0.0599231 7.81049 0.380816 -10.5699 -14.9263 -29.4651 2.03217e-16 0.0 3.88251e-19 3.92463 -9.32574 -7.08994 0.0102322 13.9469 -0.256929 2.73994 -4.78859 11.4587
-49.3958 84.8817 13.1809 -6.4561 56.807 -3.9175 1.94056 0.732265 2.24702 0.95449 -3.61361 0.752646 0.220103 -7.71945 1.04362 0.98396 3.05454 2.0436 -0.0 0.0 0.0 -0.0 0.0 0.0 -1.32438e-14 -1.44805e-13 -1.13692e-12 57.1631 -2.88296 -3.99449 -2.87478 -0.841424 4.96263 -0.706252 25.8163 3.83591 4.96003e-09 3.91245e-09 -1.8026e-09 8.48403e-09 6.81695e-09 -3.22422e-09 4.96004e-09 3.91245e-09 -1.80262e-09 7.73091 5.47488 0.417314 4.96003e-09 3.91245e-09 -1.8026e-09 2.90554 0.965183 0.102902 4.96004e-09 3.91245e-09 -1.8026e-09 10.2786 0.731801 0.0259123 4.96003e-09 3.91245e-09 -1.8026e-09 2.22167 -0.733487 -0.20892 -1.32727e-14 -1.44803e-13 -1.13716e-12 -63.8742 33.6657 -2.65593 14.2104 -7.82836 -24.9982 1.45329 -35.6073 5.59108 8.62443e-10 1.1726e-09 -2.37167e-09 1.56652e-09 2.02252e-09 -4.06303e-09 8.62432e-10 1.1726e-09 -2.37166e-09 -7.73091 5.47488 -0.417314 8.6244e-10 1.1726e-09 -2.37168e-09 -2.90554 0.965183 -0.102902 8.62438e-10 1.17261e-09 -2.37168e-09 -10.2786 0.731801 -0.0259123 8.62451e-10 1.1726e-09 -2.37168e-09 -2.22167 -0.733487 0.20892 -2.03217e-16 0.0 -3.88251e-19 4.98421 -4.29386 27.4069 0.058143 10.7336 0.573072 -20.9722 -19.1398 -44.4628 2.03217e-16 0.0 3.88251e-19 5.27371 -12.2571 -10.4572 0.0687013 20.6162 -0.416687 4.88311 -8.28156 16.8886
-49.4852 84.9368 13.182 -6.4606 56.8867 -3.8852 2.30115 0.90257 2.75107 1.15254 -4.40234 0.91903 0.308955 -9.40549 1.25396 1.17878 3.73719 2.44405 -0.0 0.0 0.0 -0.0 0.0 0.0 -1.71257e-14 -1.60917e-13 -1.32301e-12 69.8624 -2.17289 -4.76467 -3.7555 -1.13477 6.51025 -1.30632 30.6137 4.77029 5.91014e-09 4.85682e-09 -2.22778e-09 1.01107e-08 8.46228e-09 -3.97821e-09 5.91015e-09 4.85683e-09 -2.22779e-09 7.73091 5.47488 0.417314 5.91014e-09 4.85682e-09 -2.22778e-09 2.90554 0.965183 0.102902 5.91015e-09 4.85682e-09 -2.22777e-09 10.2786 0.731801 0.0259123 5.91014e-09 4.85683e-09 -2.22777e-09 2.22167 -0.733487 -0.20892 -1.71658e-14 -1.60915e-13 -1.32326e-12 -77.2145 41.605 -3.76993 16.5898 -9.24687 -30.9278 2.8886 -42.5443 7.41076 1.02969e-09 1.32059e-09 -2.62037e-09 1.86365e-09 2.27597e-09 -4.48634e-09 1.02967e-09 1.32059e-09 -2.62035e-09 -7.73091 5.47488 -0.417314 1.02968e-09 1.32059e-09 -2.62037e-09 -2.90554 0.965183 -0.102902 1.02968e-09 1.32059e-09 -2.62037e-09 -10.2786 0.731801 -0.0259123 1.02969e-09 1.32059e-09 -2.62038e-09 -2.22167 -0.733487 0.20892 -2.03217e-16 0.0 -3.88251e-19 6.00359 -4.25063 33.4338 0.0451316 12.7805 0.71111 -29.5978 -19.7621 -55.1111 2.03217e-16 0.0 3.88251e-19 6.00633 -14.2522 -12.8648 0.13383 25.2452 -0.538724 6.76878 -10.534 20.7661
